<?xml version="1.0" encoding="utf-8"?>
<!-- Generator: Adobe Illustrator 23.0.0, SVG Export Plug-In . SVG Version: 6.00 Build 0)  -->
<svg version="1.1" id="Layer_1" xmlns="http://www.w3.org/2000/svg" xmlns:xlink="http://www.w3.org/1999/xlink" x="0px" y="0px"
	 viewBox="0 0 450 332" style="enable-background:new 0 0 450 332;" xml:space="preserve">
<style type="text/css">
	.st0{fill:#EFF6FE;}
	.st1{opacity:0.1;}
	.st2{fill:#20BCEF;}
	.st3{opacity:0.5;}
	.st4{fill:#96A65F;}
	.st5{fill:#CBD880;}
	.st6{fill:#9ED16F;}
	.st7{fill:#1A171E;}
	.st8{fill:#21BCEF;}
	.st9{fill:#E6E4EF;}
	.st10{fill:#FFFFFF;}
	.st11{fill:#27242D;}
	.st12{opacity:0.6;}
	.st13{fill:#F15829;}
	.st14{fill:#E6D5B9;}
	.st15{fill:#118AAA;}
	.st16{fill:#E4ECEF;}
	.st17{fill:#FE5B3A;}
	.st18{fill:#F74528;}
	.st19{fill:#E8C8A1;}
	.st20{fill:#1E1C23;}
	.st21{fill:#CE2A19;}
	.st22{opacity:0.3;}
	.st23{fill:#5081C9;}
	.st24{opacity:0.2;}
	.st25{opacity:0.4;}
	.st26{fill:#DDCBB1;}
	.st27{fill:#151319;}
</style>
<title>login</title>
<rect x="-1.4" y="-1.5" class="st0" width="452.4" height="338.5"/>
<g class="st1">
	<path class="st2" d="M436.1,289.6c-2.7,5.2-6,10.1-9.9,14.5H31.7c-3.2-3.5-6-7.3-8.5-11.4c-3.7-5.6-7-11.4-9.9-17.5
		c-20.5-43.9-7.9-106.5,46.7-114.8c20.1-3,41-1.9,60.3-9.3c25.4-9.8,33.8-33.7,50.2-53.5c12-14.5,28.2-26.1,46.4-30.7
		c33.7-8.7,68.1,9.8,87.1,38.1c9.9,14.7,17.6,31,28,45.4c28.9,39.7,112.3,34.9,114.9,94.9C447.7,260.6,443.3,276,436.1,289.6z"/>
</g>
<g class="st3">
	<path class="st4" d="M71,286.5c-7.2-8.7-12.3-18.9-9.3-30.5c1.2-4.8,2.4-8.8-0.6-13.2c-1.4-2.1-3.2-3.9-4.2-6.3
		c-2.9-6.7,0-13.4,3.1-19.4c2.3-4.4,4.8-8.9,5.9-13.8c1.2-5.2,0.1-10.5,0.7-15.8c0.6-5.1,3.6-10.6,8.6-11.4c3.3-0.6,6.8,1.1,9.2,3.4
		c2.9,2.7,4.8,6.3,5.4,10.2c0.9,5.3-0.5,10.9,1.6,15.9c1.8,4.3,6.1,7.1,8.8,11c2.9,4.2,4,9.3,3,14.3c-0.8,4.1-3,7.8-3.7,11.9
		c-1.5,9.3,5.1,18.3,3.8,27.7c-0.9,5.4-4,10.3-8.5,13.4c-5,3.6-12.3,6.1-18.5,5c-3.4-0.6-6.3-2.6-8.2-5.4"/>
</g>
<path class="st5" d="M81.6,282.5c-0.5-1.9-0.5-4,0-5.9c1.7-5.4,6.9-9.1,10.6-13.1c4.4-4.8,7.6-11,7.6-17.5c0-5.3,1.2-9.7,4.9-13.7
	s8.2-6.9,12-10.6c4-3.9,7.6-8.2,10.8-12.8c2.7-3.9,7.6-9.8,11.5-3.3c1.5,2.6,2,5.7,1.4,8.7c-1.7,7.7-8.8,12.7-11.8,19.8
	c-1.5,3.6-1.7,7.4-2.1,11.3c-0.4,3.4-1,7.3-3.5,9.9c-1.4,1.5-3.3,2.7-4.6,4.3c-1.8,2.3-2.3,5.2-2.9,8c-0.7,2.9-1.7,5.7-3.1,8.4
	c-3.2,6.9-7.8,15-15.1,18.1c-2.1,1-4.5,1.3-6.8,0.8C85.6,293.5,82.5,287.2,81.6,282.5z"/>
<path class="st4" d="M92.6,223.6c-0.3-0.2-0.7-0.1-0.9,0.2l-10.9,16.1l-2.4-41.8c0-0.4-0.4-0.7-0.7-0.6c-0.4,0-0.7,0.3-0.6,0.7
	c0,0,0,0,0,0l1.8,30.5l-13.4-7.4c-0.3-0.2-0.8,0-0.9,0.3c-0.2,0.3,0,0.7,0.3,0.9l14,7.7h0.1l1.6,28.2L69.7,253
	c-0.3-0.2-0.7,0-0.9,0.3c0,0,0,0,0,0c-0.2,0.3,0,0.8,0.3,0.9l11.5,5.8l1.3,22.8c0,0.3,0.3,0.6,0.6,0.6h0.1c0.4,0,0.7-0.3,0.7-0.7
	c0,0,0,0,0,0L81,242.2l11.9-17.6C93.1,224.3,93,223.9,92.6,223.6C92.6,223.7,92.6,223.7,92.6,223.6z"/>
<path class="st6" d="M52.9,234.4c-2.2-5.9-3.5-10.2-4.2-12.6c1-5.1,2.6-18.4-7.2-20.4c-5.3,2.8-7,12.8,4.5,20.9
	c0.7,2.6,2.3,7.7,5,14.8c-8.2-12.2-18.8-10.8-22-5.3c1.9,12,19.8,9.1,23.2,8.4c1.5,3.8,3.4,8.1,5.6,12.8c-8.6-8.8-17.8-6.5-20.3-1.2
	c2.7,11,18.2,8,23,6.8c2.1,4.3,4.5,8.9,7.2,13.6c-11.2-10.5-22.2-7-24.8-0.4c4.2,13,22.8,7.7,28,5.9c9.3,15.7,19.9,30.6,31.7,44.6
	l2.1-1.7c-11.8-14-22.4-28.9-31.7-44.7c5.9-3.5,19.5-13,13.2-23.9c-6.6-2.5-16.6,3.2-16.4,18.3c-2.4-4.3-4.5-8.3-6.5-12.2
	c4.6-2.7,15.4-10.2,10.4-18.8c-5.1-1.9-12.7,2.4-12.9,13.8c-2.5-5.4-4.6-10.2-6.3-14.5c3.9-2.2,16.5-10.1,11.2-19.3
	C60.5,217.4,52.5,222.1,52.9,234.4z"/>
<path class="st4" d="M119.6,252.5c-0.2-0.3-0.6-0.4-0.9-0.3l-12.3,7.2l11.6-25.2c0.1-0.4-0.1-0.8-0.4-0.9c-0.3-0.1-0.7,0-0.8,0.3
	l-8.5,18.4l-0.9-15.6c0-0.4-0.4-0.7-0.7-0.6c-0.4,0-0.7,0.3-0.6,0.7c0,0,0,0,0,0l1,17.7c0,0.1,0,0.2,0.1,0.3l-11.1,24l-2.3-9.4
	c-0.1-0.4-0.5-0.6-0.8-0.5c-0.4,0.1-0.6,0.5-0.5,0.8l2.7,10.5c0,0.1,0.1,0.3,0.2,0.4l-2.1,4.6c-0.2,0.3,0,0.7,0.3,0.9c0,0,0,0,0,0
	c0.1,0,0.2,0.1,0.2,0.1c0.3,0,0.6-0.1,0.7-0.4l11.1-24.1c0.1,0,0.3,0,0.4-0.1l13.5-7.9C119.7,253.2,119.8,252.8,119.6,252.5z"/>
<path class="st5" d="M73.5,287.6c0.2-1.4,0.1-2.8-0.4-4.1c-1.6-3.6-5.4-5.8-8.2-8.4c-3.3-3-6-7.1-6.4-11.6c-0.4-3.7-1.5-6.6-4.3-9.2
	s-6.1-4.2-9-6.5c-3-2.4-5.8-5.2-8.3-8.1c-2.1-2.6-6-6.3-8.2-1.5c-0.9,1.9-1,4.1-0.4,6.1c1.7,5.2,6.9,8.2,9.5,12.9
	c1.3,2.4,1.7,5,2.2,7.6c0.5,2.4,1.2,5,3,6.6c1.1,1,2.4,1.6,3.4,2.7c1.4,1.5,2,3.4,2.6,5.3c0.7,2,1.6,3.8,2.7,5.6
	c2.7,4.6,6.4,9.8,11.7,11.5c1.5,0.6,3.2,0.6,4.7,0.1C71.4,295.4,73.2,290.9,73.5,287.6z"/>
<path class="st4" d="M67,289.8l-1.7-2.9c0-0.1,0.1-0.2,0.1-0.3l1.1-7.4c0-0.4-0.2-0.7-0.6-0.8c-0.4-0.1-0.7,0.2-0.8,0.5
	c0,0,0,0,0,0.1l-0.9,6l-8.9-15.3c0-0.1,0-0.1,0-0.2l-0.5-12.3c0-0.4-0.3-0.7-0.6-0.7c-0.4,0-0.7,0.3-0.7,0.6c0,0.1,0,0.1,0,0.2
	l0.4,10l-6.7-11.5c-0.2-0.3-0.6-0.5-0.9-0.3c-0.3,0.2-0.5,0.6-0.3,0.9c0,0,0,0.1,0.1,0.1l9.4,16.1l-8.4-3.9c-0.3-0.2-0.7,0-0.9,0.3
	s0,0.7,0.3,0.9l9.9,4.6c0.1,0,0.2,0,0.2,0l9.2,15.9c0.1,0.2,0.3,0.3,0.6,0.3c0.1,0,0.3,0,0.4-0.1C67,290.5,67.2,290.1,67,289.8z"/>
<rect x="197.4" y="273.4" class="st7" width="55.3" height="22.5"/>
<path class="st8" d="M98.2,119.1h253.5c1.5,0,2.7,1.2,2.7,2.7v150.9c0,1.5-1.2,2.7-2.7,2.7H98.2c-1.5,0-2.7-1.2-2.7-2.7V121.9
	C95.5,120.4,96.7,119.1,98.2,119.1z"/>
<rect x="108.8" y="129.8" class="st9" width="232.4" height="134.9"/>
<rect x="113" y="134.4" class="st10" width="224" height="125.9"/>
<rect x="173.9" y="295.9" class="st11" width="102.2" height="7.8"/>
<g class="st12">
	<path class="st4" d="M308.1,307c-1.7-3.9-8.4-18.7-10.1-28.1s-6.8-17-6.9-21.7s7.5-7.4,9.6-17.1s6.1-25.3,8.5-24.9s4.2,17.7,6.6,22
		s8.8,9.5,3.8,15.7s-2.3,13.5,2.3,19.9s-8.4,14.4-7.1,23.1s-1.1,20.4-1.1,20.4L308.1,307z"/>
</g>
<path class="st4" d="M310.3,288.4c-0.4,0-0.7-0.3-0.8-0.7c-0.6-4.7-1.9-9.3-3.8-13.6c-1.1-2.8-2.1-5.2-2.1-7.4
	c-0.1-2.8,1.4-4.9,2.9-7c1.4-1.9,2.8-3.9,3.2-6.5c0.7-5.5-4.2-17.6-4.3-17.7c-0.2-0.4-0.1-0.8,0.3-1c0.4-0.2,0.8-0.1,1,0.3
	c0,0,0,0.1,0.1,0.1c0.2,0.5,5.1,12.6,4.4,18.5c-0.4,3-2,5.2-3.4,7.2s-2.7,3.8-2.6,6c0.1,2,0.9,4.2,2,6.9c2,4.5,3.3,9.2,3.9,14
	C311.1,287.9,310.8,288.3,310.3,288.4L310.3,288.4z"/>
<path class="st5" d="M295.3,304.1c-1.9-0.8-2.5-11-5.9-12.5s-5.9-6.3-7-11.2s-11.2-7-13.1-12.3s3.8-9.1,3.4-14s-4.5-11.9-1.5-15.2
	s8.3,8,11.2,10.2s8.4,4.7,6.8,8.9s0.6,11,10.4,14.8S315.9,313.4,295.3,304.1z"/>
<path class="st4" d="M296.8,286.7c-0.3,0-0.6-0.2-0.7-0.5c-1.9-5.9-5-8.3-8.5-11c-2-1.4-3.9-3.1-5.5-4.9c-5.5-6.1-2.9-16.7-2.8-17.2
	c0.1-0.4,0.5-0.7,0.9-0.6c0.4,0.1,0.7,0.5,0.6,0.9c0,0.1-2.5,10.3,2.5,15.8c1.6,1.7,3.4,3.3,5.3,4.7c3.6,2.7,7,5.3,9,11.7
	c0.1,0.4-0.1,0.8-0.5,0.9c0,0,0,0,0,0C296.9,286.7,296.8,286.7,296.8,286.7z"/>
<path class="st5" d="M313.6,305.3c0.5-1.5,1-8.1,4.5-9.6s7.1-2.5,9.9-7.1s0-11.6,3-16.4s9.9-0.3,13.4-5.1s-4.3-13.1-1.4-16.7
	s6.6-13.1,2.8-14.4s-14.4,5.6-17.2,11.6s-8.3,9.6-9.6,14.4s-5.3,7.3-6.3,12.1s0.5,12.1-1.3,17.4S313.6,305.3,313.6,305.3z"/>
<path class="st4" d="M320.7,287.6L320.7,287.6c-0.5,0-0.8-0.4-0.8-0.8c0,0,0,0,0,0c1-13.1,5.5-20.2,10.3-26
	c3.6-4.4,5.9-12.8,5.9-12.9c0.1-0.4,0.5-0.6,0.9-0.5c0,0,0,0,0,0c0.4,0.1,0.6,0.5,0.5,0.9c-0.1,0.4-2.4,8.8-6.2,13.4
	c-4.6,5.5-9,12.4-9.9,25.1C321.5,287.3,321.1,287.6,320.7,287.6z"/>
<rect x="22.3" y="304" class="st13" width="415.4" height="18.8"/>
<path class="st9" d="M250.2,180.8h-2.4v-2.3c0.3-12.6-9.7-23-22.3-23.3c-12.6-0.3-23,9.7-23.3,22.3c0,0.3,0,0.6,0,1v2.3h-2.4
	c-3.5,0-6.3,2.8-6.3,6.3v39.6c0,3.5,2.8,6.3,6.3,6.3h50.5c3.5,0,6.3-2.8,6.3-6.3v0v-39.6C256.5,183.6,253.7,180.8,250.2,180.8
	L250.2,180.8z M226.4,210.5c0,0.4-0.2,0.8-0.5,1.1c-0.3,0.3-0.7,0.4-1.2,0.4c-0.6-0.1-1.1-0.5-1.2-1.2c-0.1-0.6,0.2-1.2,0.7-1.6
	l0.7-0.4l0.7,0.4C226.1,209.5,226.4,210,226.4,210.5L226.4,210.5z M215.1,180.8v-2.3c0.2-5.4,4.7-9.7,10.2-9.5
	c5.2,0.2,9.4,4.3,9.5,9.5v2.3H215.1z"/>
<path class="st14" d="M367.7,237l-19.2-0.8l-0.9-32.9l1.3-8.3l8.9-3.3l5.7,1.1c3.3,0.6,5.6,3.5,5.5,6.8l-2.1,23.3L367.7,237z"/>
<path class="st14" d="M360,187.7v6.6c-1.5,0.7-3.1,0.9-4.7,0.8c-1.8,0-2.1-0.8-2.1-0.8v-2.4L360,187.7z"/>
<path class="st14" d="M360.7,182.7c0,0.2,0,0.5,0,0.7s0,0.2,0,0.2c0.2,3.9-2.4,8.1-6.1,8.7h-0.2c-0.8,0.1-3.7,0.3-4.8-0.8
	c-1.4-1.6-2.2-3.6-2.4-5.7c0-1,0.2-1.9,0.3-2.9c0-0.6-0.3-2.3-0.3-3c0-3.5,2.3-7,6.5-7C360,173,360.9,178.5,360.7,182.7z"/>
<path class="st14" d="M375.5,220.4c-2.1,0.9-8.2-10.7-10.4-15.7s-3.1-9.5-0.5-10.5s5,2.7,7.1,7.8S377.5,219.6,375.5,220.4z"/>
<path class="st14" d="M363.8,241.7c-1.8-0.8,3.8-14.3,5.5-18.1s3.8-7.6,5.8-6.6s0.5,5-1.2,8.8S365.6,242.6,363.8,241.7z"/>
<path class="st14" d="M365.3,238.3c2.2,0.8,0.3,4.5-0.4,5.8c-1.1,2-4.2,3-5,2.6s2.1-4.8,2-5.1s-1.4,2.3-2.1,1.8s1-3.4,2.2-4.4
	S363.9,237.7,365.3,238.3z"/>
<path class="st15" d="M366.9,228.1l-1.9,4.4l2.2,1.2l2.3,1.3l0.4-0.7c1.3-2.6,6.1-12,6.6-15.4c0.6-4-3.6-15.8-3.6-15.8
	c-3.1-7.5-6.5-11.2-9.8-9.4s2.2,12.6,2.2,12.6l5.7,12l-1.8,4.2L366.9,228.1z"/>
<path class="st7" d="M368.5,199.4l4.2,19.7c0,0-10.2-2.6-10.1-3.6S368.5,199.4,368.5,199.4z"/>
<path class="st16" d="M366.9,228.1c0.1,1.9,0.2,4,0.3,5.6l2.3,1.3l0.4-0.7l-0.6-11.8L366.9,228.1z"/>
<path class="st17" d="M394.9,208.3c-7.8-3.8-17.1-2.2-23.2,4c-0.1,0.1-0.3,0.3-0.4,0.4l-6.1-3.1l-51.9-26.1l-23.8-12
	c-2-1-4.5-0.2-5.5,1.8l-3.1,6.1l0,0l-2.7,5.4c-0.9,1.7-0.2,3.8,1.5,4.6c0,0,0,0,0,0l0.5,0.3c1.7,0.9,3.8,0.2,4.6-1.5l2.7-5.4l3.9,2
	l-2.7,5.4c-0.9,1.7-0.2,3.8,1.5,4.6l0.7,0.4c1.7,0.8,3.8,0.2,4.6-1.5l2.7-5.4l3.9,2l-2.6,5.2c-0.8,1.6-0.4,3.6,1.1,4.6
	c1.6,1,3.7,0.6,4.8-1c0.1-0.1,0.1-0.2,0.2-0.3l2.7-5.4l51.9,26.1l6.1,3.1c-2.1,10.8,4.9,21.3,15.8,23.5c5.3,1,10.8-0.1,15.2-3.2
	c3.1-2.1,5.5-5,7-8.4C408.7,224.6,404.5,213.1,394.9,208.3z M399.3,232.9c-1.3,2.5-4.4,3.5-6.9,2.2c-2.5-1.3-3.5-4.4-2.2-6.9
	c1.3-2.5,4.3-3.5,6.8-2.3C399.5,227.3,400.6,230.3,399.3,232.9C399.3,232.9,399.3,232.9,399.3,232.9z"/>
<path class="st18" d="M397.3,242.8c-9.1,6.3-21.5,4-27.8-5.1c-3.1-4.4-4.2-9.9-3.2-15.2l-6.1-3.1l4.9-9.7l6.1,3.1
	c0.1-0.1,0.3-0.3,0.4-0.4C372.2,218,375.6,238.7,397.3,242.8z"/>
<path class="st19" d="M354.1,234.4c2,0.1,3.9,2.8,4.1,5.7c0.2,3,0,6-0.5,9c-1.4,9.2-1.2,20.9-3.9,21.7s-5.6-5.7-5.5-15.2
	c0-8.6-0.8-19.6,1-20.7C350.3,234.3,352.3,234.3,354.1,234.4z"/>
<path class="st14" d="M351.6,268.6c7.7-2.4,4.2,24.8,1.6,31.4s-3.5-1-4-12.4S348.6,269.5,351.6,268.6z"/>
<path class="st19" d="M364,234.4c2,0.1,3.9,2.8,4.1,5.7c0.2,3,0,6-0.5,9c-1.4,9.2-1.2,20.9-3.9,21.7s-5.6-5.7-5.5-15.2
	c0-8.6-0.8-19.6,1-20.7C360.2,234.3,362.3,234.3,364,234.4z"/>
<path class="st14" d="M361.6,268.6c7.7-2.4,4.2,24.8,1.6,31.4s-3.5-1-4-12.4S358.6,269.5,361.6,268.6z"/>
<polygon class="st14" points="358.4,249.5 359.2,287.6 365.7,287.4 367.3,249.9 "/>
<polygon class="st14" points="348.5,249.5 349.4,287.6 355.8,287.4 357.5,249.9 "/>
<path class="st20" d="M370.2,269l-3.5,0.4l-1.1,0.1c-2.9,0.3-6.2,0.6-7.9,0.6c-5.6-0.1-12.3-0.9-12.3-0.9l0.8-34.2v-0.4l23.3,0.1
	L370.2,269z"/>
<path class="st7" d="M370.2,269l-3.5,0.4c0-8.3-1-19.1-1.4-25.3s-12.9-8.4-19.3-9.1v-0.4l23.3,0.1L370.2,269z"/>
<path class="st15" d="M369.5,234.2c0,0.6-0.4,1.1-1,1.2c0,0-0.1,0-0.1,0l-22.1-0.4h-0.1c-0.3-0.1-0.5-0.4-0.4-0.7
	c1.1-5.1,1.7-10.4,1.8-15.6c0.1-2.4-0.3-4.8-1.1-7.1v-0.1c-0.1-0.3-0.2-0.5-0.3-0.8c-0.8-2.6-0.9-5.3-0.4-8c0.3-4.4,1.3-6.6,2.6-7.9
	s11.2-3.4,16.6-1.9c3.6,1,5.7,5.1,3.6,18C368,214.5,369.1,229.7,369.5,234.2z"/>
<path class="st7" d="M352.7,200c0,0-0.1,22.4-6.6,35c-0.3-0.1-0.5-0.4-0.4-0.7c1.1-5.1,1.7-10.4,1.8-15.6c0.1-2.4-0.3-4.8-1.1-7.1
	v-0.1c-0.1-0.3-0.2-0.5-0.3-0.8c0.8-4.2,1.8-8.2,1.8-8.2L352.7,200z"/>
<path class="st14" d="M324.2,203.9c1.3-1.5,12.5,7.6,15.6,10.3s6.1,5.8,4.6,7.4s-4.9-1-8-3.6S322.9,205.4,324.2,203.9z"/>
<path class="st14" d="M343.4,222.2c-2.1-0.6-0.1-13.3,1.2-18.7s3.2-9.3,5.9-8.7s2.4,5.1,0.9,10.4S345.5,222.7,343.4,222.2z"/>
<path class="st14" d="M320.2,199.5c0.5-0.6,3.3,2.2,4.2,2.9c0.1,0.1,0.2,0.2,0.3,0.2s0-0.1,0-0.1c-0.1-0.4-1.3-2-0.7-2.5
	s2.8,1.6,3.5,2.9c0.1,0.1,0.1,0.1,0.1,0.2c0.7,1,0.6,2.4-0.1,3.4c-1.3,1.9-4.4-0.8-5.5-1.7c-0.9-0.9-1.5-1.9-1.8-3.1
	C320,200.7,319.9,199.8,320.2,199.5z"/>
<path class="st15" d="M350.9,194.3c0,0-4.3-0.8-5.6,4.6s-3.4,16.4-3.4,16.4l-10.1-8.1l-3.6,3.4c0,0,11,13,15.6,12
	C346.9,221.9,356.6,194.5,350.9,194.3z"/>
<path class="st11" d="M346,177.8c0,0.2,0.1,0.4,0.1,0.6c0.3,0.9,0.7,1.7,1.2,2.6c0.3,1.1,0.6,2.2,0.7,3.3c0.4,2.7,0.7,5.4,1,8.1
	c0.1,2-0.3,4,0.5,6c1.1,2.8,2.8,5.3,4.9,7.5c1.7,1.8,4.1,2.7,6.6,2.4c2.9-0.3,5.4-2,6.9-4.5c1.4-2.5,2.1-5.4,1.9-8.3
	c-0.5-4-2.1-7.9-4.7-11c-0.9-1-1.8-2.2-2.4-3.5c-0.6-1.4-0.4-3.1-0.8-4.6c-0.3-1.5-1.2-2.8-2.5-3.7c-2.5-1.7-5.9-1.5-8.6-0.6
	S345.5,174.7,346,177.8z"/>
<path class="st20" d="M350.2,299.8c-1.1,1-2.3,2-3.6,2.7c-2.5,1.5-3.1,1.2-3.2,1.8s10.3,0.1,10.3,0.1l-0.2-4.8
	C352.4,299.6,351.3,299.7,350.2,299.8z"/>
<path class="st20" d="M360.2,299.8c-0.6,1.1-1.3,2.1-2.3,3c-1.5,1.4-2,1.1-1.9,1.6s7.5,0.2,7.5,0.2l-0.2-5
	C362.3,299.6,361.3,299.6,360.2,299.8z"/>
<polygon class="st21" points="82.3,59.7 64.2,51.4 71.1,46.3 79.2,52.6 "/>
<polygon class="st18" points="82.3,41.7 82.3,59.7 74,51.4 37.1,36.4 "/>
<polygon class="st17" points="88.4,34 82.3,41.7 37.1,36.4 "/>
<polygon class="st17" points="74,51.4 65.5,63.9 37.1,36.4 "/>
<path class="st7" d="M90.6,64.8c-0.8-0.7-1.6-1.5-2.4-2.2l0.9-0.9c0.8,0.7,1.5,1.5,2.3,2.2L90.6,64.8z"/>
<path class="st7" d="M374.8,188.7l-0.6-1.1c1.9-1.1,3.7-2.2,5.4-3.3l0.7,1.1C378.5,186.5,376.7,187.6,374.8,188.7z M385.5,181.5
	l-0.8-1c1.7-1.4,3.2-2.8,4.7-4.2l0.9,0.9C388.8,178.7,387.2,180.1,385.5,181.5L385.5,181.5z M394.6,172.3l-1-0.8
	c1.3-1.6,2.5-3.4,3.6-5.2l1.1,0.7C397.2,168.9,395.9,170.6,394.6,172.3L394.6,172.3z M401.2,161.2l-1.2-0.5c0.8-1.9,1.5-4,2-6
	l1.3,0.3C402.7,157.1,402.1,159.2,401.2,161.2L401.2,161.2z M404.3,148.6l-1.3-0.1c0.1-1,0.1-2.1,0.1-3.2s0-2.1-0.1-3.1l1.3-0.1
	c0.1,1.1,0.1,2.1,0.1,3.2S404.3,147.6,404.3,148.6L404.3,148.6z M402.1,136c-0.4-2.1-1-4.1-1.5-6.2l1.2-0.3c0.6,2,1.1,4.1,1.5,6.3
	L402.1,136z M398.7,123.8c-0.7-2-1.5-4-2.3-5.9l1.2-0.5c0.8,2,1.6,4,2.3,6L398.7,123.8z M393.8,112.1c-1-1.9-2-3.8-3-5.6l1.1-0.7
	c1.1,1.8,2.1,3.7,3.1,5.7L393.8,112.1z M387.3,101.1c-1.2-1.7-2.5-3.5-3.8-5.1l1-0.8c1.3,1.7,2.6,3.4,3.8,5.2L387.3,101.1z
	 M379.4,91.2c-1.4-1.5-2.9-3.1-4.4-4.5l0.9-0.9c1.6,1.5,3.1,3,4.5,4.6L379.4,91.2z M143.9,84.3V83c2.1,0,4.2-0.1,6.3-0.3l0.1,1.3
	C148.1,84.1,146,84.3,143.9,84.3z M137.4,84.1c-2.2-0.1-4.3-0.3-6.4-0.7l0.2-1.3c2.1,0.3,4.2,0.5,6.3,0.6L137.4,84.1z M156.7,83.3
	l-0.2-1.3c2-0.3,4.1-0.6,6.3-1l0.3,1.3C160.9,82.6,158.7,83,156.7,83.3z M370.2,82.5c-1.6-1.3-3.3-2.6-5.1-3.8l0.7-1
	c1.8,1.2,3.5,2.5,5.1,3.9L370.2,82.5z M124.7,82.3c-2.1-0.5-4.2-1-6.2-1.7l0.4-1.2c2,0.6,4.1,1.2,6.1,1.7L124.7,82.3z M169.3,80.8
	l-0.3-1.2c2-0.5,4.1-1,6.2-1.6l0.4,1.2C173.4,79.8,171.3,80.3,169.3,80.8z M112.4,78.4c-2-0.8-3.9-1.7-5.9-2.7l0.6-1.2
	c1.9,1,3.8,1.8,5.8,2.7L112.4,78.4z M181.7,77.4l-0.4-1.2c2-0.6,4-1.3,6.1-2l0.4,1.2C185.7,76.1,183.7,76.8,181.7,77.4L181.7,77.4z
	 M359.8,75.2c-1.8-1.1-3.6-2.2-5.5-3.2l0.6-1.1c1.9,1,3.7,2.1,5.5,3.3L359.8,75.2z M193.8,73.4l-0.4-1.2c2-0.7,4-1.4,6-2.2l0.4,1.2
	C197.8,71.9,195.8,72.7,193.8,73.4z M100.9,72.5c-1.8-1.1-3.6-2.4-5.3-3.6l0.8-1c1.7,1.3,3.4,2.5,5.2,3.6L100.9,72.5z M348.6,69
	c-1.9-0.9-3.8-1.8-5.8-2.7l0.5-1.2c2,0.8,3.9,1.8,5.8,2.7L348.6,69z M205.9,69l-0.4-1.2l0.6-0.2l5.4-2l0.4,1.2l-5.4,2L205.9,69z
	 M217.9,64.7l-0.4-1.2c1.9-0.7,3.7-1.3,5.6-1.9l0.5-0.1l0.3,1.2l-0.5,0.1C221.6,63.3,219.8,64,217.9,64.7L217.9,64.7z M337,64
	c-2-0.7-4-1.5-6-2.1l0.4-1.2c2,0.7,4.1,1.4,6.1,2.1L337,64z M230.1,61.1l-0.3-1.3l2.2-0.5c1.4-0.3,2.7-0.6,4-0.8l0.3,1.3l-4,0.8
	L230.1,61.1z M324.9,60.1c-2-0.6-4.1-1.1-6.2-1.5l0.3-1.3c2.1,0.5,4.2,1,6.2,1.6L324.9,60.1z M242.6,58.6l-0.2-1.3l3.2-0.5l3.1-0.5
	l0.2,1.3c-1,0.1-2.1,0.3-3.1,0.5L242.6,58.6z M312.4,57.3c-2.1-0.4-4.2-0.7-6.3-1l0.2-1.3c2.1,0.3,4.3,0.6,6.4,1L312.4,57.3z
	 M255.3,56.8l-0.2-1.3c1-0.1,2-0.2,3-0.3s2.3-0.2,3.4-0.3l0.1,1.3c-1.1,0.1-2.2,0.2-3.4,0.3L255.3,56.8z M268,55.6l-0.1-1.3l2.9-0.2
	c1.2-0.1,2.4-0.1,3.5-0.2l0,1.3c-1.2,0-2.3,0.1-3.5,0.2L268,55.6z M299.9,55.6c-2.1-0.2-4.3-0.3-6.4-0.4l0.1-1.3
	c2.1,0.1,4.3,0.3,6.4,0.4L299.9,55.6z M280.7,55v-1.3c0.9,0,1.9,0,2.8,0s2.1,0,3.2,0h0.5V55h-0.5h-3.1H280.7z"/>
<path class="st7" d="M366,192.9l-0.5-1.2c1-0.4,2-0.8,2.9-1.3l0.5,1.2C368,192.1,367,192.5,366,192.9z"/>
<path class="st7" d="M244.6,199.1h-39.2v-20.6c-0.2-10.8,8.3-19.8,19.2-20c10.8-0.2,19.8,8.3,20,19.2c0,0.3,0,0.6,0,0.9L244.6,199.1
	z M211.9,192.6H238v-14.1c-0.2-7.2-6.2-12.9-13.4-12.7c-6.9,0.2-12.5,5.8-12.7,12.7V192.6z"/>
<path class="st8" d="M250.2,184h-50.5c-1.7,0-3.1,1.4-3.1,3.1c0,0,0,0,0,0v39.6c0,1.7,1.4,3.1,3,3.1c0,0,0,0,0,0h50.5
	c1.7,0,3.1-1.4,3.1-3.1v-39.6C253.3,185.4,251.9,184,250.2,184z M222.7,206.5v-3.4c0-1.3,1-2.3,2.3-2.3c1.3,0,2.3,1,2.3,2.3
	c0,0,0,0,0,0v3.4c2.2,1.3,3,4.1,1.7,6.4s-4.1,3-6.4,1.7s-3-4.1-1.7-6.4C221.3,207.5,221.9,206.9,222.7,206.5z"/>
<g class="st22">
	<path class="st23" d="M253.3,187.1v39.6c0,1.7-1.4,3.1-3.1,3.1h-50.5c-1.7,0-3.1-1.4-3.1-3.1c0,0,0,0,0,0v-2
		c12,0.2,29.9-0.4,39.6-4.3c13.9-5.6,13.9-29,13.4-36.4h0.6C251.9,184,253.3,185.3,253.3,187.1C253.3,187,253.3,187,253.3,187.1z"/>
</g>
<g class="st24">
	<path class="st17" d="M127.8,29.7h13.3c2.2,0,3.9,1.8,3.9,3.9v13.3c0,2.2-1.8,3.9-3.9,3.9h-13.3c-2.2,0-3.9-1.8-3.9-3.9V33.6
		C123.9,31.4,125.6,29.7,127.8,29.7z"/>
</g>
<g class="st3">
	<path class="st13" d="M148.8,59.1h-14.6c-2.3,0-4.2-1.9-4.2-4.2V40.3c0-2.3,1.9-4.2,4.2-4.2h14.6c2.3,0,4.2,1.9,4.2,4.2v14.6
		C153,57.2,151.1,59.1,148.8,59.1z M134.2,39.5c-0.5,0-0.9,0.4-0.9,0.9v14.5c0,0.5,0.4,0.9,0.9,0.9h14.6c0.5,0,0.9-0.4,0.9-0.9V40.3
		c0-0.5-0.4-0.9-0.9-0.9L134.2,39.5z"/>
</g>
<g class="st24">
	<path class="st17" d="M319.1,74.9h10.1c1.6,0,3,1.3,3,3V88c0,1.6-1.3,3-3,3h-10.1c-1.6,0-3-1.3-3-3V77.9
		C316.1,76.2,317.5,74.9,319.1,74.9z"/>
</g>
<g class="st12">
	<path class="st13" d="M324.4,97.3h-11c-1.8,0-3.2-1.4-3.2-3.2V83c0-1.8,1.4-3.2,3.2-3.2h11c1.8,0,3.2,1.4,3.2,3.2v11.1
		C327.6,95.8,326.1,97.3,324.4,97.3z M313.3,82.3c-0.4,0-0.7,0.3-0.7,0.7c0,0,0,0,0,0v11.1c0,0.4,0.3,0.7,0.7,0.7h11
		c0.4,0,0.7-0.3,0.7-0.7V83c0-0.4-0.3-0.7-0.7-0.7c0,0,0,0,0,0L313.3,82.3z"/>
</g>
<g class="st25">
	<path class="st8" d="M306.2,32.9c-0.4,0-0.8-0.2-1.1-0.5l-3.9-3.9c-0.6-0.6-0.6-1.6,0-2.3c0,0,0,0,0,0l3.9-3.9
		c0.6-0.6,1.6-0.6,2.3,0c0,0,0,0,0,0l3.9,3.9c0.6,0.6,0.6,1.6,0,2.3l-3.9,3.9C307,32.7,306.6,32.9,306.2,32.9z M306.2,23.3
		c-0.1,0-0.2,0-0.2,0.1l-3.9,3.9c-0.1,0.1-0.1,0.3,0,0.4c0,0,0,0,0,0l3.9,3.8c0.1,0.2,0.3,0.2,0.4,0l3.8-3.8
		c0.1-0.1,0.1-0.1,0.1-0.2c0-0.1,0-0.2-0.1-0.2l-3.8-3.9C306.4,23.3,306.3,23.3,306.2,23.3z"/>
</g>
<g class="st3">
	<path class="st13" d="M380.9,130.7c-0.4,0-0.8-0.2-1.1-0.5l-3.9-3.8c-0.6-0.6-0.6-1.6,0-2.3c0,0,0,0,0,0l3.9-3.8
		c0.6-0.6,1.6-0.6,2.3,0c0,0,0,0,0,0l3.9,3.8c0.6,0.6,0.6,1.6,0,2.3c0,0,0,0,0,0l-3.8,3.8C381.7,130.6,381.3,130.7,380.9,130.7z
		 M380.6,129.3c0.2,0.2,0.3,0.2,0.4,0l3.9-3.8c0.1-0.1,0.1-0.1,0.1-0.2c0-0.1,0-0.2-0.1-0.2l-3.9-3.8c-0.1-0.2-0.3-0.2-0.4,0
		l-3.8,3.8c-0.1,0.1-0.1,0.1-0.1,0.2c0,0.1,0,0.2,0.1,0.2L380.6,129.3z"/>
</g>
<g class="st25">
	<path class="st8" d="M230.9,94c-0.4,0-0.8-0.2-1.1-0.5l-3.9-3.8c-0.6-0.6-0.6-1.6,0-2.3l3.9-3.8c0.6-0.6,1.6-0.6,2.3,0c0,0,0,0,0,0
		l3.9,3.8c0.6,0.6,0.6,1.6,0,2.3l-3.9,3.9C231.7,93.8,231.3,94,230.9,94z M230.9,84.4c-0.1,0-0.2,0-0.2,0.1l-3.9,3.8
		c-0.1,0.1-0.1,0.3,0,0.4c0,0,0,0,0,0l3.9,3.8c0.1,0.2,0.3,0.2,0.4,0l3.8-3.8c0.1-0.1,0.1-0.3,0-0.4c0,0,0,0,0,0l-3.8-3.8
		C231,84.4,231,84.4,230.9,84.4L230.9,84.4z"/>
</g>
<g class="st22">
	<path class="st13" d="M52.3,180.4c-0.4,0-0.8-0.2-1.1-0.5l-3.8-3.8c-0.6-0.6-0.6-1.6,0-2.3c0,0,0,0,0,0l3.8-3.8
		c0.3-0.3,0.7-0.5,1.1-0.5l0,0c0.4,0,0.8,0.2,1.2,0.5l3.8,3.8c0.6,0.6,0.6,1.7,0,2.3l-3.8,3.8C53.1,180.2,52.7,180.4,52.3,180.4z
		 M52.3,170.8c-0.1,0-0.2,0-0.2,0.1l-3.8,3.9c-0.1,0.1-0.1,0.3,0,0.4c0,0,0,0,0,0l3.8,3.9c0.1,0.1,0.3,0.1,0.4,0c0,0,0,0,0,0
		l3.8-3.9c0.1-0.1,0.1-0.3,0-0.4c0,0,0,0,0,0l-3.8-3.9C52.5,170.8,52.4,170.8,52.3,170.8z"/>
</g>
<g class="st22">
	<path class="st17" d="M404.9,194.4c-0.5,0-0.9-0.2-1.2-0.5l-4.5-4.5c-0.7-0.7-0.7-1.8,0-2.4l3.7-3.7c0.7-0.7,1.8-0.7,2.4,0l4.5,4.5
		c0.7,0.7,0.7,1.8,0,2.4c0,0,0,0,0,0l-3.7,3.7C405.8,194.2,405.3,194.4,404.9,194.4z M404.6,192.9c0.1,0.1,0.3,0.1,0.5,0
		c0,0,0,0,0,0l3.7-3.7c0.1-0.1,0.1-0.3,0-0.5l-4.5-4.5c-0.1-0.1-0.3-0.1-0.5,0l-3.7,3.7c-0.1,0.1-0.1,0.3,0,0.5c0,0,0,0,0,0
		L404.6,192.9z"/>
</g>
<g class="st22">
	<circle class="st8" cx="68.9" cy="105.5" r="2.6"/>
</g>
<g class="st25">
	<path class="st8" d="M371.6,41.3c0,1.5-1.2,2.8-2.8,2.8c-1.5,0-2.8-1.2-2.8-2.8c0-1.5,1.2-2.8,2.8-2.8l0,0
		C370.4,38.6,371.6,39.8,371.6,41.3z"/>
</g>
<g class="st25">
	<circle class="st8" cx="200.8" cy="23.8" r="2.8"/>
</g>
<g class="st25">
	<circle class="st8" cx="157.1" cy="99.1" r="3.2"/>
</g>
<g class="st22">
	<circle class="st8" cx="55.4" cy="142.9" r="2.3"/>
</g>
<g class="st22">
	<path class="st8" d="M60.4,107.7c0,0.6-0.4,1-1,1s-1-0.4-1-1s0.4-1,1-1S60.4,107.1,60.4,107.7z"/>
</g>
<path class="st26" d="M150.2,246.3h0.1c1.3-0.2,2.6-0.7,3.8-1.3v2.8c-0.5,1.7-1.9,3-3.7,3.3c-1.8-0.3-3.2-1.6-3.7-3.4v-2.5v-0.1
	C147.8,245.7,148.9,246.1,150.2,246.3z"/>
<path class="st14" d="M150.3,246.3h-0.1c-1.2-0.2-2.4-0.6-3.5-1.1c-1.9-0.8-3.3-2.5-3.7-4.6c0,0-2-0.9-1.9-2.4s1.7-1.2,1.7-1.2
	s-1.4-5,1.2-8.8s6.1-2.6,6.1-2.6h0.3c0,0,3.4-1.1,6.1,2.6s1.2,8.8,1.2,8.8s1.7-0.4,1.7,1.2s-1.9,2.4-1.9,2.4
	c-0.4,1.9-1.6,3.5-3.4,4.4C152.9,245.6,151.6,246.1,150.3,246.3z"/>
<path class="st10" d="M166.7,286.3v0.1c-5.6,2.3-11.1,5.1-16.3,8.3c-5.2-3.2-10.7-5.9-16.3-8.3v-0.1V275h32.6L166.7,286.3
	L166.7,286.3z"/>
<path class="st14" d="M134.1,279.1v7.1v0.1c-1.4-0.6-2.9-1.1-4.2-1.5c-3.4-2.8-8.1-6.8-8.6-8.5c-0.4-1.4,1.4-5.4,3.7-9.7l0,0
	l5.8,3.3l1.9,1.1c-1,1.9-1.9,3.7-1.8,4.1C131.3,276.2,134.1,279.1,134.1,279.1L134.1,279.1z"/>
<path class="st14" d="M179.6,276.4c-0.5,1.7-5.2,5.8-8.6,8.5c-1.3,0.4-2.8,0.9-4.2,1.5v-0.1v-7.1h0.1c0,0,2.8-2.9,3.1-4
	c0.2-0.5-0.7-2.3-1.8-4.1l1.8-1l5.8-3.3l0,0C178.1,271,180,275,179.6,276.4z"/>
<path class="st26" d="M172.5,275.5c-1.8,2.5-3.7,4.9-5.8,7.1v-3.6h0.1c0,0,2.8-2.9,3.1-4c0.2-0.5-0.7-2.3-1.8-4.1l1.9-1
	C171.3,271.4,173.4,274,172.5,275.5z"/>
<path class="st17" d="M175.8,266.7L175.8,266.7L170,270l0,0l-1.8,1c-1.3-2.3-2.8-4.7-3-5l0,0c0,0-0.4,6-0.2,8.8v0.2h-29v-0.3
	c0.2-2.8-0.2-8.8-0.2-8.8l0,0c-0.2,0.3-1.7,2.7-3,5l-1.9-1.1l-5.9-3.2l0,0c2.4-4.5,5.3-9.4,6.9-12.2c3-5.6,14.8-6.7,14.8-6.7
	c0.5,1.7,1.9,3,3.7,3.4c1.8-0.3,3.2-1.6,3.7-3.3c0,0,11.8,1.1,14.9,6.7C170.5,257.3,173.4,262.2,175.8,266.7z"/>
<path class="st18" d="M135.7,262.3v3.7l0,0c-0.2,0.3-1.7,2.7-3,5l-1.9-1.1C132.3,267.3,133.9,264.7,135.7,262.3z"/>
<path class="st26" d="M134.1,279.1v2.5c-2.6-2-5.2-4.5-5.3-6.3c0-1.3,0.9-3.3,2-5.5l1.9,1.1c-1,1.9-1.9,3.7-1.8,4.1
	C131.3,276.2,134.1,279.1,134.1,279.1L134.1,279.1z"/>
<path class="st20" d="M141.7,235c-0.3-0.5-0.5-1.1-0.5-1.8c0-0.8,0.4-1.5,1-2c-0.1-0.3-0.2-0.7-0.1-1c0.1-0.4,0.4-0.7,0.8-0.9
	c-0.2-0.7-0.1-1.4,0.2-2c0.4-0.8,1.3-1.1,2.1-0.8c0-1,0.5-1.8,1.4-2.4c0.7-0.3,1.5-0.3,2.1,0.2c0.1-0.3,0.4-0.6,0.8-0.7
	c0.4-0.1,0.7,0.1,0.9,0.4c0.2-0.3,0.5-0.5,0.9-0.4c0.3,0.1,0.6,0.4,0.7,0.7c0.6-0.5,1.5-0.5,2.1-0.2c0.8,0.5,1.3,1.4,1.4,2.4
	c0.8-0.3,1.7,0,2.1,0.8c0.3,0.6,0.4,1.3,0.2,2c0.4,0.1,0.7,0.4,0.8,0.9c0.1,0.3,0.1,0.7-0.1,1c0.6,0.5,1,1.2,1,2
	c0,0.6-0.1,1.2-0.5,1.8c0.3,0.3,0.5,0.7,0.3,1.2c-0.1,0.4-0.4,0.7-0.8,0.7c-0.1,0.1-0.2,0.2-0.4,0.3c-0.1,0-0.2,0.1-0.3,0.1
	c-0.2-0.1-0.4-0.3-0.6-0.5c-0.2-0.4-0.2-1-0.1-1.4c-0.5-0.6-0.8-1.4-0.7-2.2c0-0.2,0.1-0.5,0.2-0.7c-0.6-0.3-1.1-0.8-1.3-1.5
	c-0.1-0.3-0.1-0.6-0.1-0.8c-0.2,0.2-0.6,0.2-0.8,0c-0.1-0.1-0.2-0.3-0.3-0.5c-0.4,0.3-0.9,0.4-1.4,0.3c-0.5-0.1-1-0.3-1.3-0.6
	c-0.2,0.5-0.7,0.8-1.2,0.7l0,0c-0.5,0.1-1-0.2-1.2-0.7c-0.4,0.4-0.8,0.6-1.3,0.6c-0.5,0.1-1-0.1-1.4-0.3c0,0.2-0.1,0.4-0.3,0.5
	c-0.2,0.2-0.6,0.2-0.8,0c0,0.3,0,0.6-0.1,0.8c-0.2,0.7-0.7,1.2-1.3,1.5c0.1,0.2,0.2,0.4,0.2,0.7c0.1,0.8-0.2,1.6-0.7,2.2
	c0.2,0.5,0.2,1-0.1,1.4c-0.1,0.2-0.3,0.4-0.6,0.5c-0.1,0-0.2-0.1-0.3-0.1c-0.1-0.1-0.3-0.2-0.4-0.3c-0.4,0-0.7-0.3-0.8-0.7
	C141.4,235.8,141.4,235.3,141.7,235z"/>
<path class="st20" d="M164.4,299.9v2.4v3.3c0,0-3.3-0.3-8.1-0.9c-7.4-0.9-14.6-2.3-21.8-4.1c-6.5-1.8-11.9-4.1-13.3-7
	c-2.9-6.3,3.3-11.3,10.4-8.8c2.9,1,8.7,3.6,14.7,6.4C155.2,295.3,164.4,299.9,164.4,299.9z"/>
<path class="st27" d="M164.4,299.9v2.4l-8.1,2.4c-7.4-0.9-14.6-2.3-21.8-4.1c4.2-2.9,8.1-6,11.8-9.4
	C155.2,295.3,164.4,299.9,164.4,299.9z"/>
<path class="st20" d="M166.9,300.9v5.1c0,0,6.7,0.5,7.1-0.3s0.9-3.5-0.8-4.8S167.4,299.5,166.9,300.9z"/>
<polygon class="st14" points="164.3,299.9 166.9,300.8 166.9,305.9 164.2,305.6 "/>
<path class="st20" d="M136.4,305.6c0,0,39.2-3.5,43.1-12c2.9-6.3-3.3-11.3-10.4-8.8s-32.8,15.1-32.8,15.1L136.4,305.6z"/>
<polygon class="st14" points="136.4,299.9 133.8,300.8 133.8,305.9 136.6,305.6 "/>
<path class="st20" d="M133.9,300.9v5.1c0,0-6.7,0.5-7.1-0.3s-0.9-3.5,0.8-4.8C129.2,299.6,133.3,299.5,133.9,300.9z"/>
<path class="st18" d="M170,270L170,270l-1.8,1c-1.3-2.3-2.8-4.7-3-5v-3.9L170,270z"/>
</svg>
